{
	"asset":{
		"generator":"Khronos glTF Blender I/O v3.5.30",
		"version":"2.0"
	},
	"extensionsUsed":[
		"KHR_materials_specular",
		"KHR_materials_ior"
	],
	"scene":0,
	"scenes":[
		{
			"name":"Scene",
			"nodes":[
				0
			]
		}
	],
	"nodes":[
		{
			"mesh":0,
			"name":"Text",
			"rotation":[
				0.7071068286895752,
				0,
				0,
				0.7071068286895752
			],
			"scale":[
				2.921147108078003,
				2.921147108078003,
				2.921147108078003
			],
			"translation":[
				-8.472097396850586,
				0,
				0
			]
		}
	],
	"materials":[
		{
			"doubleSided":true,
			"extensions":{
				"KHR_materials_specular":{
					"specularColorFactor":[
						1.3343906972552002,
						1.1155976696916525,
						1.1600299622914736
					]
				},
				"KHR_materials_ior":{
					"ior":1.4500000476837158
				}
			},
			"name":"Material.001",
			"pbrMetallicRoughness":{
				"baseColorFactor":[
					0.9911020398139954,
					0.004776639863848686,
					0.20507872104644775,
					1
				],
				"metallicFactor":0.7874016165733337,
				"roughnessFactor":0
			}
		}
	],
	"meshes":[
		{
			"name":"Text",
			"primitives":[
				{
					"attributes":{
						"POSITION":0,
						"TEXCOORD_0":1,
						"NORMAL":2
					},
					"indices":3,
					"material":0
				}
			]
		}
	],
	"accessors":[
		{
			"bufferView":0,
			"componentType":5126,
			"count":3882,
			"max":[
				5.651829242706299,
				0.14999999105930328,
				0.1978239268064499
			],
			"min":[
				0.044510383158922195,
				-0.14999999105930328,
				-0.8021759986877441
			],
			"type":"VEC3"
		},
		{
			"bufferView":1,
			"componentType":5126,
			"count":3882,
			"type":"VEC2"
		},
		{
			"bufferView":2,
			"componentType":5126,
			"count":3882,
			"type":"VEC3"
		},
		{
			"bufferView":3,
			"componentType":5123,
			"count":11520,
			"type":"SCALAR"
		}
	],
	"bufferViews":[
		{
			"buffer":0,
			"byteLength":46584,
			"byteOffset":0,
			"target":34962
		},
		{
			"buffer":0,
			"byteLength":31056,
			"byteOffset":46584,
			"target":34962
		},
		{
			"buffer":0,
			"byteLength":46584,
			"byteOffset":77640,
			"target":34962
		},
		{
			"buffer":0,
			"byteLength":23040,
			"byteOffset":124224,
			"target":34963
		}
	],
	"buffers":[
		{
			"byteLength":147264,
			"uri":"model_6.bin"
		}
	]
}
