{
  "accessors": [
    {
      "bufferView": 2,
      "componentType": 5126,
      "count": 51132,
      "max": [
        926.097412109375,
        1752.8345947265625,
        350.4131774902344
      ],
      "min": [
        -926.090087890625,
        -1752.82958984375,
        -350.4131164550781
      ],
      "type": "VEC3"
    },
    {
      "bufferView": 2,
      "byteOffset": 613584,
      "componentType": 5126,
      "count": 51132,
      "max": [
        0.8332573175430298,
        0.8974642753601074,
        0.9999872446060181
      ],
      "min": [
        -0.8332573175430298,
        -0.8974642753601074,
        -0.9999873638153076
      ],
      "type": "VEC3"
    },
    {
      "bufferView": 1,
      "componentType": 5126,
      "count": 51132,
      "max": [
        1.0,
        1.0000001192092896
      ],
      "min": [
        0.0,
        0.0
      ],
      "type": "VEC2"
    },
    {
      "bufferView": 1,
      "byteOffset": 409056,
      "componentType": 5126,
      "count": 51132,
      "max": [
        0.7642686367034912,
        1.0
      ],
      "min": [
        0.23573137819766998,
        0.0
      ],
      "type": "VEC2"
    },
    {
      "bufferView": 1,
      "byteOffset": 818112,
      "componentType": 5126,
      "count": 51132,
      "max": [
        0.9833968877792358,
        0.9919354915618896
      ],
      "min": [
        0.008064478635787964,
        0.13653850555419922
      ],
      "type": "VEC2"
    },
    {
      "bufferView": 0,
      "componentType": 5125,
      "count": 58320,
      "type": "SCALAR"
    }
  ],
  "asset": {
    "extras": {
      "author": "Inditrion Dradnon (https://sketchfab.com/dradnon)",
      "license": "CC-BY-4.0 (http://creativecommons.org/licenses/by/4.0/)",
      "source": "https://sketchfab.com/3d-models/the-web-b7389852440941d6b1b4973b19a5d242",
      "title": "The Web"
    },
    "generator": "Sketchfab-12.64.0",
    "version": "2.0"
  },
  "bufferViews": [
    {
      "buffer": 0,
      "byteLength": 233280,
      "name": "floatBufferViews",
      "target": 34963
    },
    {
      "buffer": 0,
      "byteLength": 1227168,
      "byteOffset": 233280,
      "byteStride": 8,
      "name": "floatBufferViews",
      "target": 34962
    },
    {
      "buffer": 0,
      "byteLength": 1227168,
      "byteOffset": 1460448,
      "byteStride": 12,
      "name": "floatBufferViews",
      "target": 34962
    }
  ],
  "buffers": [
    {
      "byteLength": 2687616,
      "uri": "scene.bin"
    }
  ],
  "images": [
    {
      "uri": "textures/Material__2142150779_baseColor.jpeg"
    },
    {
      "uri": "textures/Material__2142150779_metallicRoughness.png"
    }
  ],
  "materials": [
    {
      "doubleSided": true,
      "emissiveFactor": [
        1.0,
        1.0,
        1.0
      ],
      "emissiveTexture": {
        "index": 0
      },
      "name": "Material__2142150779",
      "pbrMetallicRoughness": {
        "baseColorTexture": {
          "index": 0
        },
        "metallicRoughnessTexture": {
          "index": 1
        },
        "roughnessFactor": 0.9577051494623774
      }
    }
  ],
  "meshes": [
    {
      "name": "Plane004_Material__2142150779_0",
      "primitives": [
        {
          "attributes": {
            "NORMAL": 1,
            "POSITION": 0,
            "TEXCOORD_0": 2,
            "TEXCOORD_1": 3,
            "TEXCOORD_2": 4
          },
          "indices": 5,
          "material": 0,
          "mode": 4
        }
      ]
    }
  ],
  "nodes": [
    {
      "children": [
        1
      ],
      "matrix": [
        -2.220446049250313e-16,
        -4.440892098500626e-16,
        1.0,
        0.0,
        -1.0,
        -1.6081226229577287e-16,
        -2.2204460492503136e-16,
        0.0,
        1.6081226229577292e-16,
        -1.0,
        -4.440892098500626e-16,
        0.0,
        -4.241943315719254e-05,
        -1.1596679541980858e-05,
        4.241943315719254e-05,
        1.0
      ],
      "name": "Sketchfab_model"
    },
    {
      "children": [
        2
      ],
      "matrix": [
        0.009999999776482582,
        0.0,
        0.0,
        0.0,
        0.0,
        -0.009999999776482582,
        0.0,
        0.0,
        0.0,
        0.0,
        -0.009999999776482582,
        0.0,
        0.0,
        0.0,
        0.0,
        1.0
      ],
      "name": "a4fc34fd57954d4388506a2f0e69e847.fbx"
    },
    {
      "children": [
        3
      ],
      "name": "RootNode"
    },
    {
      "children": [
        4
      ],
      "name": "Plane004"
    },
    {
      "mesh": 0,
      "name": "Plane004_Material__2142150779_0"
    }
  ],
  "samplers": [
    {
      "magFilter": 9729,
      "minFilter": 9987,
      "wrapS": 10497,
      "wrapT": 10497
    }
  ],
  "scene": 0,
  "scenes": [
    {
      "name": "Sketchfab_Scene",
      "nodes": [
        0
      ]
    }
  ],
  "textures": [
    {
      "sampler": 0,
      "source": 0
    },
    {
      "sampler": 0,
      "source": 1
    }
  ]
}
